<svg xmlns="http://www.w3.org/2000/svg" width="1200" height="630" viewBox="0 0 1200 630">
  <defs>
    <linearGradient id="accent" x1="0" y1="0" x2="1" y2="1">
      <stop offset="0" stop-color="#06b6d4"/>
      <stop offset="1" stop-color="#8b5cf6"/>
    </linearGradient>
    <radialGradient id="glowP" cx="0.78" cy="0.18" r="0.5">
      <stop offset="0" stop-color="#8b5cf6" stop-opacity="0.28"/>
      <stop offset="1" stop-color="#8b5cf6" stop-opacity="0"/>
    </radialGradient>
    <radialGradient id="glowC" cx="0.15" cy="0.85" r="0.5">
      <stop offset="0" stop-color="#06b6d4" stop-opacity="0.22"/>
      <stop offset="1" stop-color="#06b6d4" stop-opacity="0"/>
    </radialGradient>
  </defs>

  <rect width="1200" height="630" fill="#07090f"/>
  <rect width="1200" height="630" fill="url(#glowP)"/>
  <rect width="1200" height="630" fill="url(#glowC)"/>
  <rect x="8" y="8" width="1184" height="614" rx="22" fill="none" stroke="url(#accent)" stroke-opacity="0.35" stroke-width="2"/>

  <!-- node-graph motif, top-right -->
  <g stroke="url(#accent)" stroke-width="2" stroke-opacity="0.6" stroke-linecap="round">
    <line x1="980" y1="120" x2="1060" y2="200"/>
    <line x1="1060" y1="200" x2="1100" y2="110"/>
    <line x1="980" y1="120" x2="1100" y2="110"/>
    <line x1="1060" y1="200" x2="1000" y2="280"/>
  </g>
  <g fill="url(#accent)">
    <circle cx="980" cy="120" r="8"/>
    <circle cx="1100" cy="110" r="8"/>
    <circle cx="1060" cy="200" r="10"/>
    <circle cx="1000" cy="280" r="7"/>
  </g>

  <text x="80" y="150" font-family="Archivo, sans-serif" font-size="26" letter-spacing="4" fill="#a1afc4">JOSHUASUTCLIFF.COM</text>

  <text x="78" y="300" font-family="Archivo, sans-serif" font-weight="700" font-size="92" fill="#e2e8f0">Joshua Sutcliff</text>

  <text x="80" y="372" font-family="Schibsted Grotesk, sans-serif" font-size="34" fill="#a1afc4">Agentic systems &amp; a compounding AI operating practice.</text>

  <!-- system chip -->
  <rect x="80" y="430" width="640" height="64" rx="32" fill="rgba(255,255,255,0.04)" stroke="url(#accent)" stroke-opacity="0.5"/>
  <circle cx="116" cy="462" r="6" fill="url(#accent)"/>
  <text x="138" y="472" font-family="Martian Mono, monospace" font-size="26" fill="#e2e8f0">Compound AI: Enforced Runtime</text>

  <text x="80" y="560" font-family="Schibsted Grotesk, sans-serif" font-size="24" fill="#6b7a92">The public face of a private R&amp;D habit.</text>
</svg>
